<?xml version="1.0" encoding="iso-8859-1"?>
<!-- Generator: Adobe Illustrator 16.0.0, SVG Export Plug-In . SVG Version: 6.00 Build 0)  -->
<!DOCTYPE svg PUBLIC "-//W3C//DTD SVG 1.1//EN" "http://www.w3.org/Graphics/SVG/1.1/DTD/svg11.dtd">
<svg version="1.1" id="Capa_1" xmlns="http://www.w3.org/2000/svg" xmlns:xlink="http://www.w3.org/1999/xlink" x="0px" y="0px"
	 width="37.307px" height="37.307px" viewBox="0 0 37.307 37.307" style="enable-background:new 0 0 37.307 37.307;"
	 xml:space="preserve">
<g>
	<path d="M19.787,6.411h-2.328V0.163l2.328-0.002V6.411z M13.83,7.476L9.412,3.057L7.766,4.703l4.417,4.418L13.83,7.476z
		 M29.482,4.706l-1.647-1.646l-4.418,4.416l1.646,1.646L29.482,4.706z M22.789,20.134c1.793-1.297,2.965-3.4,2.965-5.779
		c-0.001-3.939-3.189-7.133-7.131-7.135c-3.938,0.002-7.13,3.192-7.132,7.133c0,2.381,1.171,4.482,2.964,5.781v0.92h8.333
		L22.789,20.134z M14.455,23.313c0,0.785,0.622,1.416,1.399,1.457c0.214,0.83,1.367,1.467,2.768,1.467
		c1.402,0,2.552-0.637,2.77-1.467c0.776-0.041,1.398-0.67,1.397-1.457v-0.201h-8.333L14.455,23.313z M22.787,21.665h-8.332v0.809
		l8.333,0.004L22.787,21.665z M24.845,25.499l-4.174,8.172l-0.659-5.314l1.031-0.846h-2.499h-2.282l1.031,0.846l-0.66,5.314
		l-4.171-8.172C5.208,26.478,0,29.585,0,37.146h37.307C37.306,29.585,32.097,26.476,24.845,25.499z"/>
</g>
<g>
</g>
<g>
</g>
<g>
</g>
<g>
</g>
<g>
</g>
<g>
</g>
<g>
</g>
<g>
</g>
<g>
</g>
<g>
</g>
<g>
</g>
<g>
</g>
<g>
</g>
<g>
</g>
<g>
</g>
</svg>
