<?xml version="1.0" encoding="iso-8859-1"?>
<!-- Generator: Adobe Illustrator 18.1.1, SVG Export Plug-In . SVG Version: 6.00 Build 0)  -->
<svg version="1.1" id="Capa_1" xmlns="http://www.w3.org/2000/svg" xmlns:xlink="http://www.w3.org/1999/xlink" x="0px" y="0px"
	 viewBox="0 0 24.527 24.527" style="enable-background:new 0 0 24.527 24.527;" xml:space="preserve">
<g>
	<g>
		<path style="fill:#010002;" d="M5.681,5.326c0.002-0.151-0.113-0.28-0.263-0.294C5.325,5.023,5.197,5.019,5.061,5.019
			c-0.32,0-0.683,0.018-0.733,0.023C4.304,5.044,4.283,5.045,4.262,5.045c-0.176,0-0.308-0.057-0.409-0.152
			c-0.315-0.302-0.1-0.846-0.512-0.846c-1.391,0-1.587,1.039-1.236,2.294c0.021,0.17,0.349,1.783,5.034,6.184
			c0.06,0.057,0.129,0.081,0.197,0.081c0.204,0,0.387-0.225,0.253-0.446C6.415,10.216,5.64,8.311,5.681,5.326z M2.604,6.276
			C2.6,6.252,2.595,6.229,2.589,6.205C2.408,5.561,2.411,5.049,2.6,4.802c0.105-0.138,0.294-0.221,0.562-0.246
			c0.04,0.196,0.107,0.472,0.346,0.701c0.2,0.189,0.46,0.29,0.754,0.29c0.034,0,0.068-0.001,0.111-0.004
			c0.059-0.005,0.393-0.021,0.688-0.021c0.041,0,0.08,0,0.117,0c-0.004,2.369,0.495,4.077,1.295,5.666
			C2.845,7.607,2.606,6.288,2.604,6.276z"/>
		<path style="fill:#010002;" d="M21.187,4.046c-0.411,0-0.197,0.544-0.513,0.846c-0.1,0.096-0.232,0.152-0.409,0.152
			c-0.02,0-0.041-0.001-0.065-0.002c-0.05-0.005-0.413-0.023-0.731-0.023c-0.139,0-0.266,0.003-0.358,0.012
			c-0.15,0.015-0.266,0.144-0.264,0.294c0.042,2.985-0.732,4.89-1.907,6.833c-0.135,0.221,0.049,0.446,0.254,0.446
			c0.066,0,0.136-0.024,0.196-0.081c4.683-4.4,5.013-6.013,5.034-6.184C22.773,5.085,22.577,4.046,21.187,4.046z M21.939,6.205
			c-0.006,0.024-0.01,0.047-0.015,0.071c-0.002,0.012-0.242,1.331-3.869,4.911c0.801-1.589,1.299-3.297,1.294-5.666
			c0.038,0,0.077,0,0.119,0c0.293,0,0.628,0.016,0.688,0.021c0.042,0.003,0.076,0.004,0.109,0.004c0.294,0,0.555-0.1,0.754-0.29
			c0.24-0.229,0.308-0.505,0.347-0.701c0.269,0.024,0.457,0.107,0.563,0.246C22.116,5.049,22.12,5.561,21.939,6.205z"/>
		<path style="fill:#010002;" d="M21.74,2.727l-1.035,0.011c-0.773,0-1.101,0.548-1.199,0.992h-0.374l-0.017-2.678
			c0-0.064-0.06-0.202-0.111-0.229c-0.823-0.405-3.721-0.82-6.63-0.823c-3.11-0.004-6.232,0.431-6.849,0.823
			C5.472,0.849,5.412,0.987,5.412,1.052L5.396,3.73H5.023C4.924,3.286,4.598,2.738,3.824,2.738L2.787,2.727
			c-1.736,0-2.282,1.464-2.33,2.254l0.001,0.305C0.46,6.049,0.629,6.79,0.954,7.481c0.842,1.786,3.083,5.046,8.984,8.771
			c0.018,0.011,0.66,0.791,1.586,0.791v1.016h-0.837c-0.238,0-0.432,0.193-0.432,0.433v0.328c0,0.238,0.193,0.431,0.432,0.431h0.872
			v1.134c0,0-1.734,0.961-4.127,0.781c0.655,1.128-0.539,1.225-0.539,1.225s-1.068,0.198-1.068,1.065c0,0-0.04,1.071,1.102,1.071
			c0.697,0,9.978,0,10.673,0c1.144,0,1.102-1.071,1.102-1.071c0-0.867-1.068-1.065-1.068-1.065s-1.191-0.097-0.537-1.225
			c-2.393,0.18-4.126-0.781-4.126-0.781v-1.134h0.871c0.238,0,0.431-0.192,0.431-0.431v-0.328c0-0.239-0.192-0.433-0.431-0.433
			h-0.838v-1.016c0.927,0,1.568-0.78,1.586-0.791c5.9-3.724,8.143-6.985,8.983-8.771c0.327-0.691,0.494-1.432,0.496-2.195
			l0.002-0.305C24.023,4.191,23.476,2.727,21.74,2.727z M16.779,1.075c-2.756,0.318-6.283,0.317-9.03,0
			C10.663,0.615,13.863,0.584,16.779,1.075z M23.486,5.287c0,0.65-0.146,1.297-0.423,1.885c-0.78,1.656-2.941,4.893-8.787,8.584
			H10.25c-5.845-3.691-8.006-6.928-8.786-8.584C1.188,6.584,1.041,5.937,1.041,5.287V5.148c0-0.255,0.047-0.506,0.138-0.745
			C1.364,3.916,1.792,3.31,2.784,3.31L3.82,3.323c0.602,0,0.65,0.589,0.653,0.704c0.003,0.158,0.134,0.284,0.293,0.285l0.921,0.003
			c0.161,0,0.292-0.131,0.292-0.292l0.016-2.614C6.808,1.56,8.98,1.893,12.17,1.904v0.002c0.001,0,0.186,0,0.187,0V1.904
			c3.191-0.01,5.363-0.344,6.175-0.495l0.014,2.614c0.002,0.161,0.133,0.292,0.294,0.292l0.921-0.003
			c0.16-0.001,0.289-0.127,0.291-0.286c0.005-0.115,0.052-0.704,0.656-0.704l1.035-0.013c0.992,0,1.421,0.606,1.606,1.093
			c0.091,0.239,0.136,0.49,0.136,0.745L23.486,5.287L23.486,5.287z"/>
	</g>
</g>
<g>
</g>
<g>
</g>
<g>
</g>
<g>
</g>
<g>
</g>
<g>
</g>
<g>
</g>
<g>
</g>
<g>
</g>
<g>
</g>
<g>
</g>
<g>
</g>
<g>
</g>
<g>
</g>
<g>
</g>
</svg>
