<?xml version="1.0" encoding="iso-8859-1"?>
<!-- Generator: Adobe Illustrator 18.1.1, SVG Export Plug-In . SVG Version: 6.00 Build 0)  -->
<svg version="1.1" id="Capa_1" xmlns="http://www.w3.org/2000/svg" xmlns:xlink="http://www.w3.org/1999/xlink" x="0px" y="0px"
	 viewBox="0 0 34.424 34.424" style="enable-background:new 0 0 34.424 34.424;" xml:space="preserve">
<g>
	<g>
		<path style="fill:#010002;" d="M4.611,25.601c0,0.256,0.204,0.467,0.466,0.467h11.097c-0.377-0.265-0.72-0.573-1.019-0.93H5.078
			C4.815,25.138,4.611,25.344,4.611,25.601z"/>
		<path style="fill:#010002;" d="M20.236,26.899c-0.264,0.062-0.532,0.091-0.806,0.112c0.147,0.526,0.327,1.005,0.503,1.391H0.903
			v-5.605h12.983c-0.078-0.389-0.115-0.786-0.102-1.187H0.649C0.288,21.61,0,21.903,0,22.261v6.682c0,0.359,0.288,0.653,0.649,0.653
			h19.989c0.005,0,0.005,0,0.005,0c0.432,0,0.769-0.418,0.62-0.855L20.236,26.899z"/>
		<path style="fill:#010002;" d="M0.726,20.526h13.348c0.005-0.021,0.007-0.04,0.011-0.061c0.103-0.398,0.252-0.775,0.437-1.132
			H0.978v-5.608h18.813c-0.408,0.765-0.563,1.566-0.563,2.34H5.009c-0.263,0-0.465,0.21-0.465,0.466
			c0,0.258,0.203,0.467,0.465,0.467h11.947c0.699-0.329,1.46-0.51,2.235-0.51c0.354,0,0.7,0.045,1.04,0.115
			c-0.105-0.996,0.069-2.081,0.941-2.952c0.192-0.187,0.244-0.467,0.146-0.712c-0.102-0.242-0.339-0.4-0.604-0.4H0.726
			c-0.363,0-0.65,0.292-0.65,0.651v6.684C0.075,20.233,0.362,20.526,0.726,20.526z"/>
		<path style="fill:#010002;" d="M0.697,11.281h19.986c0.004,0,0.004,0,0.004,0c0.362,0,0.658-0.293,0.658-0.652
			c0-0.159-0.057-0.305-0.151-0.415c-0.281-0.473-2.124-3.734-0.052-5.807c0.192-0.186,0.244-0.466,0.146-0.714
			c-0.104-0.242-0.341-0.401-0.605-0.401H0.697c-0.364,0-0.654,0.293-0.654,0.652v6.684C0.042,10.988,0.332,11.281,0.697,11.281z
			 M0.947,4.482H19.76c-0.409,0.763-0.563,1.565-0.563,2.337H4.977c-0.261,0-0.466,0.211-0.466,0.466
			c0,0.259,0.206,0.466,0.466,0.466h14.288c0.136,0.909,0.438,1.731,0.713,2.337H0.947V4.482z"/>
		<path style="fill:#010002;" d="M34.399,26.194L29.101,6.922c-0.002-0.004-0.002-0.004-0.002-0.004
			c-0.096-0.352-0.457-0.557-0.804-0.461c-0.151,0.042-0.276,0.134-0.359,0.251c-0.378,0.4-3.036,3.042-5.585,1.591
			c-0.23-0.133-0.517-0.108-0.727,0.051c-0.207,0.163-0.297,0.434-0.226,0.69l5.3,19.272c0.096,0.35,0.454,0.55,0.8,0.453
			l6.443-1.772C34.288,26.9,34.498,26.544,34.399,26.194z M27.777,27.753L22.789,9.614c0.845,0.192,1.659,0.127,2.403-0.077
			l3.77,13.709c0.07,0.254,0.325,0.395,0.574,0.326c0.248-0.066,0.395-0.319,0.325-0.573l-3.79-13.775
			c0.842-0.373,1.553-0.883,2.063-1.306l5.046,18.349L27.777,27.753z"/>
		<path style="fill:#010002;" d="M22.623,19.638c-1.175-1.968-3.72-2.612-5.688-1.438c-1.968,1.171-2.613,3.716-1.44,5.686
			c1.091,1.832,3.374,2.516,5.275,1.654l3.125,5.591l1.352-0.74l-3.56-5.422C23.252,23.691,23.686,21.428,22.623,19.638z
			 M20.653,24.431c-1.479,0.881-3.386,0.396-4.267-1.078c-0.88-1.478-0.395-3.386,1.081-4.264c1.475-0.88,3.385-0.396,4.265,1.079
			C22.614,21.644,22.126,23.552,20.653,24.431z"/>
	</g>
</g>
<g>
</g>
<g>
</g>
<g>
</g>
<g>
</g>
<g>
</g>
<g>
</g>
<g>
</g>
<g>
</g>
<g>
</g>
<g>
</g>
<g>
</g>
<g>
</g>
<g>
</g>
<g>
</g>
<g>
</g>
</svg>
