<?xml version="1.0" encoding="iso-8859-1"?>
<!-- Generator: Adobe Illustrator 16.0.0, SVG Export Plug-In . SVG Version: 6.00 Build 0)  -->
<!DOCTYPE svg PUBLIC "-//W3C//DTD SVG 1.1//EN" "http://www.w3.org/Graphics/SVG/1.1/DTD/svg11.dtd">
<svg version="1.1" id="Capa_1" xmlns="http://www.w3.org/2000/svg" xmlns:xlink="http://www.w3.org/1999/xlink" x="0px" y="0px"
	 width="442.761px" height="442.762px" viewBox="0 0 442.761 442.762" style="enable-background:new 0 0 442.761 442.762;"
	 xml:space="preserve">
<g>
	<path d="M237.081,31.617c-113.594,0-205.679,84.96-205.679,189.764c0,28.473,6.809,55.473,18.986,79.711L1.735,389.064
		c-2.704,4.887-2.215,10.916,1.239,15.307c2.672,3.396,6.722,5.299,10.911,5.299c1.223,0,2.457-0.162,3.674-0.496l106.505-29.234
		c32.434,19.719,71.269,31.205,113.016,31.205c113.595,0,205.681-84.959,205.681-189.764
		C442.761,116.577,350.674,31.617,237.081,31.617z M209.378,266.368c-10.755,13.695-26.845,20.935-46.529,20.935
		c-7.818,0-14.155-6.336-14.155-14.154c0-7.816,6.337-14.155,14.155-14.155c11.138,0,18.846-3.212,24.261-10.106
		c5.248-6.688,7.92-16.295,9.033-26.547h-35.311c-5.862,0-10.616-4.753-10.616-10.617v-45.647c0-5.864,4.754-10.617,10.616-10.617
		h45.648c6.529,0,12.473,5.72,13.752,10.963c0.16,0.658,3.947,16.335,4.767,35.868C226.17,230.114,220.914,251.674,209.378,266.368z
		 M307.284,266.368c-10.752,13.695-26.843,20.935-46.529,20.935c-7.817,0-14.153-6.336-14.153-14.154
		c0-7.816,6.336-14.155,14.153-14.155c11.14,0,18.849-3.212,24.262-10.106c5.25-6.688,7.92-16.295,9.032-26.547H258.74
		c-5.864,0-10.615-4.753-10.615-10.617v-45.647c0-5.864,4.751-10.617,10.615-10.617h45.648c6.527,0,12.471,5.72,13.751,10.963
		c0.161,0.658,3.945,16.335,4.769,35.868C324.077,230.114,318.822,251.674,307.284,266.368z"/>
</g>
<g>
</g>
<g>
</g>
<g>
</g>
<g>
</g>
<g>
</g>
<g>
</g>
<g>
</g>
<g>
</g>
<g>
</g>
<g>
</g>
<g>
</g>
<g>
</g>
<g>
</g>
<g>
</g>
<g>
</g>
</svg>
