<?xml version="1.0" encoding="iso-8859-1"?>
<!-- Generator: Adobe Illustrator 16.0.0, SVG Export Plug-In . SVG Version: 6.00 Build 0)  -->
<!DOCTYPE svg PUBLIC "-//W3C//DTD SVG 1.1//EN" "http://www.w3.org/Graphics/SVG/1.1/DTD/svg11.dtd">
<svg version="1.1" id="Capa_1" xmlns="http://www.w3.org/2000/svg" xmlns:xlink="http://www.w3.org/1999/xlink" x="0px" y="0px"
	 width="937.701px" height="937.7px" viewBox="0 0 937.701 937.7" style="enable-background:new 0 0 937.701 937.7;"
	 xml:space="preserve">
<g>
	<g>
		<path d="M414.913,639.8l-61.199-10.2c-12.5-2.1-24-7-33.801-14.399v275c0,26.199,21.301,47.5,47.5,47.5
			c26.2,0,47.5-21.301,47.5-47.5V639.8z"/>
		<path d="M240.113,296.4l-68.2,157.8c-9.9,22.8,0.6,49.3,23.5,59.199c5.8,2.5,11.9,3.7,17.8,3.7c17.4,0,34-10.2,41.3-27.2
			L313.913,352.5l35.101-8.7l-25.9,177.4l-3.2,21.899l-0.399,2.4c-1,6-0.8,11.899,0.399,17.5c3.9,18.6,18.801,33.899,38.7,37.2
			l56.3,9.399l158,26.3v133.5c0,26.2,21.301,47.5,47.5,47.5c26.2,0,47.5-21.3,47.5-47.5V595.5c0-23.2-16.8-43-39.699-46.9
			L480.413,524c0,0,35.801-248,35.601-251c0.8-5.5,0.5-11.3-0.9-17.1c-5.1-20.5-23.5-34.1-43.6-34.1c-3.6,0-7.299,0.4-10.9,1.3
			l-190,47.4C256.914,273.9,245.713,283.5,240.113,296.4z"/>
		<path d="M460.014,192.7c12.099,5.2,25.5,8.1,39.5,8.1c2.399,0,4.8-0.1,7.1-0.3c52.101-3.6,93.2-47.1,93.2-100.1
			c0-55.4-44.9-100.4-100.4-100.4c-7.3,0-14.5,0.8-21.399,2.3c-8.5,1.8-16.5,4.7-24,8.5c-32.601,16.6-55,50.4-55,89.5
			C399.113,141.8,424.214,177.4,460.014,192.7z"/>
		<circle cx="673.913" cy="367.4" r="95.6"/>
	</g>
</g>
<g>
</g>
<g>
</g>
<g>
</g>
<g>
</g>
<g>
</g>
<g>
</g>
<g>
</g>
<g>
</g>
<g>
</g>
<g>
</g>
<g>
</g>
<g>
</g>
<g>
</g>
<g>
</g>
<g>
</g>
</svg>
